<svg xmlns="http://www.w3.org/2000/svg" viewBox="0 0 212.6 30.02"><defs><style>.cls-1{fill:#64c800;}.cls-2{fill:#0082dc;}</style></defs><title>资源 2</title><g id="图层_2" data-name="图层 2"><g id="图层_1-2" data-name="图层 1"><path class="cls-1" d="M18.28.08C9.43.08,3.87,2.81,1.89,11.32L.34,18C-1.59,26.34,5.07,30,11.62,30h21a3.15,3.15,0,0,0,3.07-2.43l2.53-10.79a3.16,3.16,0,0,0-3.07-3.87H29.76v0H23l-.85,1.61A2.37,2.37,0,0,0,24.22,18h4.32L27,24.55h-8.5c-6,0-7.82-1.93-6.89-5.89l1.71-7.45c.85-3.63,4-5.69,10.63-5.69H38.07a3.16,3.16,0,0,0,3.07-2.44l.69-3Z"/><path class="cls-1" d="M58.45,24.61c-6.7,0-5.09-5.26-5.09-5.26L57.91.09,45.38,5.44,41.86,20.63s-2.33,9.26,9.71,9.26h1.27v0h8.59l2.81-5.23H58.75a1.87,1.87,0,0,0-.3,0"/><path class="cls-2" d="M209.45,4.8h-16.7c-8.51,0-10.67,5.48-11.33,8.13l-3.89,17h7.19a3.15,3.15,0,0,0,3.07-2.43l3.41-14.72a4.45,4.45,0,0,1,1.46-2.28,4.35,4.35,0,0,1,2.42-.65h7.43l-4,17.19a2.36,2.36,0,0,0,2.3,2.89h6.8l4.89-21.24a3.15,3.15,0,0,0-3.07-3.85"/><path class="cls-2" d="M167,5h-9.11c-5.8,0-13.07,2.29-14.74,9.37l-1.45,6.2c-1.66,7.19,4.7,9.36,10.43,9.36H161c5.73,0,13.14-2.17,14.81-9.36l1.47-6.2C178.61,7.14,172.79,5,167,5m-.19,9.3-1.64,7.07c-.7,2.75-2.84,4.06-7,4.06s-6.4-1.05-5.55-4.92l1.3-5.75c1-4,3.36-5.21,7.52-5.21,4.62,0,6.09,1.32,5.34,4.75"/><path class="cls-2" d="M134.57,0a3.15,3.15,0,0,0-3.07,2.43l-.72,3.1H120.64c-5.67,0-13.26,2.24-14.83,9.22l-1.37,6.07c-1.54,6.81,6.3,9.2,10.75,9.2h15.43a6.31,6.31,0,0,0,6.14-4.89L142.52,0Zm-8.43,25.59h-6.37c-5,0-5.84-1.59-5.09-4.84l1.37-6.1c.66-3,2.89-4.65,7.72-4.65h6Z"/><path class="cls-1" d="M92,5H82.85c-5.8,0-13.06,2.27-14.72,9.37l-1.45,6.19c-1.49,6.35,3.32,8.79,8.4,9.27l3.69-5.26c-1.16-.73-1.62-2-1.18-4.09l1.33-5.74c.92-4,3.37-5.2,7.53-5.2a13.76,13.76,0,0,1,2.69.22L92.47,5H92"/><path class="cls-2" d="M94.18,5.12l-3.6,5.15c1.3.71,1.63,2,1.18,4L90.1,21.38c-.66,2.73-2.8,4.05-6.94,4.05a13,13,0,0,1-3-.29l-3.36,4.79h9.25c5.73,0,13.12-2.17,14.8-9.36l1.47-6.19c1.11-6.29-3.16-8.74-8.15-9.26"/></g></g></svg>